<svg width="20" height="20" viewBox="0 0 20 20" fill="none" xmlns="http://www.w3.org/2000/svg">
<path d="M12.7532 12.7532C12.9484 12.5579 13.2649 12.5579 13.4602 12.7532L16.3534 15.6464C16.5487 15.8416 16.5487 16.1581 16.3534 16.3534C16.1581 16.5487 15.8416 16.5487 15.6464 16.3534L12.7532 13.4602C12.5579 13.2649 12.5579 12.9484 12.7532 12.7532Z" fill="#737373"/>
<path d="M14.1667 9.33333C14.1667 6.66396 12.0027 4.5 9.33333 4.5C6.66396 4.5 4.5 6.66396 4.5 9.33333C4.5 12.0027 6.66396 14.1667 9.33333 14.1667C12.0027 14.1667 14.1667 12.0027 14.1667 9.33333ZM15.1667 9.33333C15.1667 12.555 12.555 15.1667 9.33333 15.1667C6.11167 15.1667 3.5 12.555 3.5 9.33333C3.5 6.11167 6.11167 3.5 9.33333 3.5C12.555 3.5 15.1667 6.11167 15.1667 9.33333Z" fill="#737373"/>
</svg>
